<?xml version="1.0" encoding="iso-8859-1"?>
<!-- Generator: Adobe Illustrator 22.1.0, SVG Export Plug-In . SVG Version: 6.00 Build 0)  -->
<svg version="1.1" id="Capa_1" xmlns="http://www.w3.org/2000/svg" xmlns:xlink="http://www.w3.org/1999/xlink" x="0px" y="0px"
	 viewBox="0 0 993.745 700" style="enable-background:new 0 0 993.745 700;" xml:space="preserve">
<g id="XMLID_1_">
	<g id="XMLID_41_">
		<path id="XMLID_11_" style="fill:#BFE6EC;" d="M588.245,416.952l-52.798,27.184c-5.919,3.047-8.246,10.316-5.199,16.234
			l0.673,1.307l4.306,8.364l29.394,57.09l4.306,8.364l0.673,1.307c3.047,5.919,10.316,8.246,16.234,5.199l52.798-27.184
			c5.919-3.047,8.246-10.316,5.199-16.234l-0.673-1.307l-4.306-8.364l-29.394-57.09l-4.306-8.364l-0.673-1.307
			C601.432,416.233,594.164,413.905,588.245,416.952z"/>
		
			<path id="XMLID_9_" style="fill:none;stroke:#0099B3;stroke-width:3;stroke-linecap:round;stroke-linejoin:round;stroke-miterlimit:10;" d="
			M583.939,408.588l-52.798,27.184c-5.919,3.047-8.246,10.315-5.199,16.234l43.658,84.795c3.047,5.919,10.315,8.246,16.234,5.199
			l52.798-27.184c5.919-3.047,8.246-10.315,5.199-16.234l-43.658-84.795C597.125,407.869,589.857,405.541,583.939,408.588z"/>
		
			<rect id="XMLID_10_" x="543.14" y="438.484" transform="matrix(0.8891 -0.4578 0.4578 0.8891 -152.6922 320.4568)" style="fill:#FFFFFF;stroke:#0099B3;stroke-width:3;stroke-linecap:round;stroke-linejoin:round;stroke-miterlimit:10;" width="83.492" height="73.62"/>
		
			<circle id="XMLID_12_" style="fill:#FFFFFF;stroke:#0099B3;stroke-width:3;stroke-linecap:round;stroke-linejoin:round;stroke-miterlimit:10;" cx="605.586" cy="518.067" r="4.967"/>
		<circle id="XMLID_13_" style="fill:#333331;" cx="582.409" cy="421.245" r="2.97"/>
		<path id="XMLID_15_" style="fill:#0099B3;" d="M573.868,429.81l-21.694,11.17c-1.804,0.929-4.02,0.219-4.949-1.585l0,0
			c-0.929-1.804-0.219-4.02,1.585-4.949l21.694-11.17c1.804-0.929,4.02-0.219,4.949,1.585l0,0
			C576.382,426.666,575.672,428.881,573.868,429.81z"/>
		<g id="XMLID_18_">
			<g id="XMLID_25_">
				<path style="fill:#0099B3;" d="M583.698,481.582l-6.752,3.477l0.401,3.711l-6.092,3.137l-1.381-21.767l5.889-3.032
					l16.915,13.769l-6.193,3.188L583.698,481.582z M579.826,478.117l-4.026-3.579l0.574,5.356L579.826,478.117z"/>
				<path style="fill:#0099B3;" d="M602.317,467.403l-4.188,2.156l2.091,4.061l-4.568,2.353l-2.091-4.061l-4.188,2.156l-2.222-4.314
					l4.188-2.156l-2.091-4.062l4.568-2.353l2.091,4.062l4.188-2.156L602.317,467.403z"/>
			</g>
		</g>
		
			<rect id="XMLID_26_" x="608.329" y="424.475" transform="matrix(0.8891 -0.4578 0.4578 0.8891 -128.666 327.1356)" style="fill:#BFE6EC;stroke:#0099B3;stroke-width:3;stroke-linecap:round;stroke-linejoin:round;stroke-miterlimit:10;" width="4.704" height="9.166"/>
		
			<rect id="XMLID_27_" x="615.079" y="437.586" transform="matrix(0.8891 -0.4578 0.4578 0.8891 -133.9187 331.6798)" style="fill:#BFE6EC;stroke:#0099B3;stroke-width:3;stroke-linecap:round;stroke-linejoin:round;stroke-miterlimit:10;" width="4.704" height="9.166"/>
		
			<rect id="XMLID_28_" x="552.961" y="509.608" transform="matrix(0.8891 -0.4578 0.4578 0.8891 -173.7777 311.2339)" style="fill:#BFE6EC;stroke:#0099B3;stroke-width:3;stroke-linecap:round;stroke-linejoin:round;stroke-miterlimit:10;" width="4.704" height="9.166"/>
	</g>
	<g id="XMLID_8_">
		
			<path id="XMLID_29_" style="fill:#BFE6EC;stroke:#0099B3;stroke-width:3;stroke-linecap:round;stroke-linejoin:round;stroke-miterlimit:10;" d="
			M358.56,550.062l-8.822-1.514c-8.1-1.39-13.539-9.083-12.149-17.182l1.033-6.02c0.647-3.768,3.387-6.837,7.059-7.904l3.737-1.086
			c6.569-1.909,13.607-1.362,19.802,1.538l5.777,2.704c4.888,2.288,7.075,8.045,4.939,13.001l-2.736,6.351
			C374.068,547.222,366.363,551.401,358.56,550.062z"/>
		
			<line id="XMLID_30_" style="fill:none;stroke:#0099B3;stroke-width:3;stroke-linecap:round;stroke-linejoin:round;stroke-miterlimit:10;" x1="338.622" y1="525.346" x2="330.336" y2="523.925"/>
		
			<path id="XMLID_33_" style="fill:#BFE6EC;stroke:#0099B3;stroke-width:3;stroke-linecap:round;stroke-linejoin:round;stroke-miterlimit:10;" d="
			M411.038,559.067l8.822,1.514c8.1,1.39,15.792-4.049,17.182-12.149l1.033-6.02c0.647-3.768-0.914-7.575-4.02-9.805l-3.161-2.27
			c-5.556-3.99-12.375-5.821-19.182-5.152l-6.348,0.624c-5.371,0.528-9.352,5.226-8.991,10.611l0.462,6.9
			C397.365,551.22,403.235,557.728,411.038,559.067z"/>
		
			<line id="XMLID_32_" style="fill:none;stroke:#0099B3;stroke-width:3;stroke-linecap:round;stroke-linejoin:round;stroke-miterlimit:10;" x1="438.075" y1="542.412" x2="446.361" y2="543.834"/>
		
			<path id="XMLID_31_" style="fill:none;stroke:#0099B3;stroke-width:3;stroke-linecap:round;stroke-linejoin:round;stroke-miterlimit:10;" d="
			M380.438,527.194c0,0,10.009-6.647,16.74,2.872"/>
		<g id="XMLID_40_">
			<path id="XMLID_36_" style="fill:#FFFFFF;" d="M398.133,536.301l0.079,1.194c11.676,0.318,22.419-2.28,29.528-7.098
				c-2.734-1.592-5.721-2.672-8.814-3.203c-2.308-0.396-4.676-0.487-7.042-0.254l-6.347,0.625
				C401.086,528.003,397.834,531.84,398.133,536.301z"/>
			<path id="XMLID_48_" style="fill:#FFFFFF;" d="M377.8,534.101l0.517-1.199c1.769-4.108-0.018-8.809-4.068-10.706c0,0,0,0-0.001,0
				l-5.777-2.705c-5.245-2.457-11.13-3.111-16.756-1.898C356.984,524.563,366.473,530.587,377.8,534.101z"/>
		</g>
	</g>
	<g id="XMLID_34_">
		
			<circle id="XMLID_38_" style="fill:#FFFFFF;stroke:#0099B3;stroke-width:3;stroke-linecap:round;stroke-linejoin:round;stroke-miterlimit:10;" cx="282.202" cy="407.249" r="50.958"/>
		
			<path id="XMLID_43_" style="fill:#FFFFFF;stroke:#0099B3;stroke-width:3;stroke-linecap:round;stroke-linejoin:round;stroke-miterlimit:10;" d="
			M336.657,401.957h-18.023c-2.567-17.824-17.896-31.524-36.431-31.524c-20.333,0-36.815,16.483-36.815,36.815
			s16.483,36.815,36.815,36.815c18.535,0,33.864-13.699,36.431-31.524h18.023c2.923,0,5.292-2.369,5.292-5.292
			S339.579,401.957,336.657,401.957z"/>
		
			<circle id="XMLID_39_" style="fill:#BFE6EC;stroke:#0099B3;stroke-width:3;stroke-linecap:round;stroke-linejoin:round;stroke-miterlimit:10;" cx="282.202" cy="407.249" r="29.203"/>
		<path id="XMLID_46_" style="fill:#FFFFFF;" d="M300.819,387.08c-4.999-4.636-11.583-7.27-18.617-7.27
			c-15.13,0-27.439,12.309-27.439,27.439c0,7.034,2.634,13.618,7.27,18.617c-0.926-2.968-1.403-6.074-1.403-9.222
			c0-17.075,13.891-30.967,30.967-30.967C294.744,385.677,297.851,386.154,300.819,387.08z"/>
	</g>
	<g id="XMLID_42_">
		
			<path id="XMLID_44_" style="fill:#FFFFFF;stroke:#0099B3;stroke-width:3;stroke-linecap:round;stroke-linejoin:round;stroke-miterlimit:10;" d="
			M757.264,428.589l-222.794-87.051c-6.943-2.713-10.373-10.541-7.66-17.484l54.358-139.122l247.937,96.875L774.748,420.93
			C772.035,427.873,764.208,431.302,757.264,428.589z"/>
		
			<polygon id="XMLID_45_" style="fill:#BFE6EC;stroke:#0099B3;stroke-width:3;stroke-linecap:round;stroke-linejoin:round;stroke-miterlimit:10;" points="
			829.107,281.808 581.169,184.933 579.354,155.959 850.084,261.741 		"/>
		
			<path id="XMLID_47_" style="fill:#FFFFFF;stroke:#0099B3;stroke-width:3;stroke-linecap:round;stroke-linejoin:round;stroke-miterlimit:10;" d="
			M841.855,242.956L598.138,147.73c-7.46-2.915-15.87,0.77-18.784,8.229l0,0l270.73,105.781l0,0
			C852.999,254.281,849.314,245.871,841.855,242.956z"/>
		<g id="XMLID_49_">
			
				<polygon id="XMLID_51_" style="fill:#FFFFFF;stroke:#0099B3;stroke-width:3;stroke-linecap:round;stroke-linejoin:round;stroke-miterlimit:10;" points="
				590.148,178.381 589.624,170.032 832.993,265.123 826.949,270.905 			"/>
			
				<polygon id="XMLID_50_" style="fill:#FFFFFF;stroke:#0099B3;stroke-width:3;stroke-linecap:round;stroke-linejoin:round;stroke-miterlimit:10;" points="
				590.148,178.381 589.624,170.032 832.993,265.123 826.949,270.905 			"/>
		</g>
		
			<rect id="XMLID_52_" x="622.045" y="342.61" transform="matrix(0.9314 0.3639 -0.3639 0.9314 175.5296 -214.2085)" style="fill:#BFE6EC;stroke:#0099B3;stroke-width:3;stroke-linecap:round;stroke-linejoin:round;stroke-miterlimit:10;" width="68.268" height="32.126"/>
		
			<line id="XMLID_53_" style="fill:#FFFFFF;stroke:#0099B3;stroke-width:3;stroke-linecap:round;stroke-linejoin:round;stroke-miterlimit:10;" x1="622.194" y1="351.861" x2="642.99" y2="359.987"/>
		
			<line id="XMLID_54_" style="fill:#FFFFFF;stroke:#0099B3;stroke-width:3;stroke-linecap:round;stroke-linejoin:round;stroke-miterlimit:10;" x1="664.984" y1="368.581" x2="685.78" y2="376.706"/>
		
			<rect id="XMLID_55_" x="564.454" y="283.067" transform="matrix(0.9314 0.3639 -0.3639 0.9314 144.6189 -187.9883)" style="fill:#BFE6EC;stroke:#0099B3;stroke-width:3;stroke-linecap:round;stroke-linejoin:round;stroke-miterlimit:10;" width="13.386" height="13.386"/>
		
			<rect id="XMLID_56_" x="585.649" y="291.349" transform="matrix(0.9314 0.3639 -0.3639 0.9314 149.0863 -195.1341)" style="fill:#BFE6EC;stroke:#0099B3;stroke-width:3;stroke-linecap:round;stroke-linejoin:round;stroke-miterlimit:10;" width="13.386" height="13.386"/>
		
			<polygon id="XMLID_58_" style="fill:#BFE6EC;stroke:#0099B3;stroke-width:3;stroke-linecap:round;stroke-linejoin:round;stroke-miterlimit:10;" points="
			694.522,330.78 609.74,297.654 604.868,310.122 689.65,343.248 702.118,348.12 706.99,335.652 		"/>
		
			<rect id="XMLID_62_" x="712.823" y="341.039" transform="matrix(0.9314 0.3639 -0.3639 0.9314 175.8908 -238.009)" style="fill:#BFE6EC;stroke:#0099B3;stroke-width:3;stroke-linecap:round;stroke-linejoin:round;stroke-miterlimit:10;" width="13.386" height="13.386"/>
		
			<rect id="XMLID_63_" x="734.018" y="349.32" transform="matrix(0.9314 0.3639 -0.3639 0.9314 180.3583 -245.1549)" style="fill:#BFE6EC;stroke:#0099B3;stroke-width:3;stroke-linecap:round;stroke-linejoin:round;stroke-miterlimit:10;" width="13.386" height="13.386"/>
		
			<polygon id="XMLID_61_" style="fill:#BFE6EC;stroke:#0099B3;stroke-width:3;stroke-linecap:round;stroke-linejoin:round;stroke-miterlimit:10;" points="
			596.014,270.254 574.818,261.973 569.947,274.441 591.142,282.722 603.61,287.594 608.482,275.126 		"/>
		
			<rect id="XMLID_72_" x="614.315" y="280.513" transform="matrix(0.9314 0.3639 -0.3639 0.9314 147.1085 -206.3094)" style="fill:#BFE6EC;stroke:#0099B3;stroke-width:3;stroke-linecap:round;stroke-linejoin:round;stroke-miterlimit:10;" width="13.386" height="13.386"/>
		
			<rect id="XMLID_71_" x="635.51" y="288.794" transform="matrix(0.9314 0.3639 -0.3639 0.9314 151.5759 -213.4552)" style="fill:#BFE6EC;stroke:#0099B3;stroke-width:3;stroke-linecap:round;stroke-linejoin:round;stroke-miterlimit:10;" width="13.386" height="13.386"/>
		
			<rect id="XMLID_70_" x="656.706" y="297.076" transform="matrix(0.9314 0.3639 -0.3639 0.9314 156.0433 -220.601)" style="fill:#BFE6EC;stroke:#0099B3;stroke-width:3;stroke-linecap:round;stroke-linejoin:round;stroke-miterlimit:10;" width="13.386" height="13.386"/>
		
			<rect id="XMLID_67_" x="720.292" y="321.921" transform="matrix(0.9314 0.3639 -0.3639 0.9314 169.4456 -242.0385)" style="fill:#BFE6EC;stroke:#0099B3;stroke-width:3;stroke-linecap:round;stroke-linejoin:round;stroke-miterlimit:10;" width="13.386" height="13.386"/>
		
			<rect id="XMLID_66_" x="741.488" y="330.203" transform="matrix(0.9314 0.3639 -0.3639 0.9314 173.913 -249.1843)" style="fill:#BFE6EC;stroke:#0099B3;stroke-width:3;stroke-linecap:round;stroke-linejoin:round;stroke-miterlimit:10;" width="13.386" height="13.386"/>
		
			<polygon id="XMLID_57_" style="fill:#BFE6EC;stroke:#0099B3;stroke-width:3;stroke-linecap:round;stroke-linejoin:round;stroke-miterlimit:10;" points="
			765.578,336.508 760.707,348.975 753.237,368.093 765.705,372.965 773.175,353.847 778.046,341.379 		"/>
		
			<rect id="XMLID_84_" x="579.393" y="244.832" transform="matrix(0.9314 0.3639 -0.3639 0.9314 131.7284 -196.0471)" style="fill:#BFE6EC;stroke:#0099B3;stroke-width:3;stroke-linecap:round;stroke-linejoin:round;stroke-miterlimit:10;" width="13.386" height="13.386"/>
		
			<rect id="XMLID_83_" x="600.589" y="253.114" transform="matrix(0.9314 0.3639 -0.3639 0.9314 136.1958 -203.193)" style="fill:#BFE6EC;stroke:#0099B3;stroke-width:3;stroke-linecap:round;stroke-linejoin:round;stroke-miterlimit:10;" width="13.386" height="13.386"/>
		
			<rect id="XMLID_82_" x="621.784" y="261.395" transform="matrix(0.9314 0.3639 -0.3639 0.9314 140.6632 -210.3388)" style="fill:#BFE6EC;stroke:#0099B3;stroke-width:3;stroke-linecap:round;stroke-linejoin:round;stroke-miterlimit:10;" width="13.386" height="13.386"/>
		
			<rect id="XMLID_81_" x="642.98" y="269.677" transform="matrix(0.9314 0.3639 -0.3639 0.9314 145.1306 -217.4846)" style="fill:#BFE6EC;stroke:#0099B3;stroke-width:3;stroke-linecap:round;stroke-linejoin:round;stroke-miterlimit:10;" width="13.386" height="13.386"/>
		
			<rect id="XMLID_80_" x="664.175" y="277.959" transform="matrix(0.9314 0.3639 -0.3639 0.9314 149.5981 -224.6304)" style="fill:#BFE6EC;stroke:#0099B3;stroke-width:3;stroke-linecap:round;stroke-linejoin:round;stroke-miterlimit:10;" width="13.386" height="13.386"/>
		
			<rect id="XMLID_79_" x="685.371" y="286.24" transform="matrix(0.9314 0.3639 -0.3639 0.9314 154.0655 -231.7763)" style="fill:#BFE6EC;stroke:#0099B3;stroke-width:3;stroke-linecap:round;stroke-linejoin:round;stroke-miterlimit:10;" width="13.386" height="13.386"/>
		
			<polygon id="XMLID_59_" style="fill:#BFE6EC;stroke:#0099B3;stroke-width:3;stroke-linecap:round;stroke-linejoin:round;stroke-miterlimit:10;" points="
			709.461,292.545 701.992,311.663 693.264,308.253 680.796,303.381 675.924,315.849 688.393,320.72 697.12,324.131 
			709.588,329.002 714.46,316.534 721.929,297.417 		"/>
		
			<rect id="XMLID_77_" x="727.762" y="302.803" transform="matrix(0.9314 0.3639 -0.3639 0.9314 163.0003 -246.0679)" style="fill:#BFE6EC;stroke:#0099B3;stroke-width:3;stroke-linecap:round;stroke-linejoin:round;stroke-miterlimit:10;" width="13.386" height="13.386"/>
		
			<rect id="XMLID_76_" x="748.958" y="311.085" transform="matrix(0.9314 0.3639 -0.3639 0.9314 167.4677 -253.2137)" style="fill:#BFE6EC;stroke:#0099B3;stroke-width:3;stroke-linecap:round;stroke-linejoin:round;stroke-miterlimit:10;" width="13.386" height="13.386"/>
		
			<rect id="XMLID_75_" x="770.153" y="319.367" transform="matrix(0.9314 0.3639 -0.3639 0.9314 171.9352 -260.3596)" style="fill:#BFE6EC;stroke:#0099B3;stroke-width:3;stroke-linecap:round;stroke-linejoin:round;stroke-miterlimit:10;" width="13.386" height="13.386"/>
		
			<polygon id="XMLID_60_" style="fill:#BFE6EC;stroke:#0099B3;stroke-width:3;stroke-linecap:round;stroke-linejoin:round;stroke-miterlimit:10;" points="
			610.953,232.019 589.758,223.738 584.886,236.206 606.082,244.487 618.55,249.359 623.421,236.891 		"/>
		
			<rect id="XMLID_92_" x="629.254" y="242.278" transform="matrix(0.9314 0.3639 -0.3639 0.9314 134.218 -214.3682)" style="fill:#BFE6EC;stroke:#0099B3;stroke-width:3;stroke-linecap:round;stroke-linejoin:round;stroke-miterlimit:10;" width="13.386" height="13.386"/>
		
			<rect id="XMLID_91_" x="650.45" y="250.559" transform="matrix(0.9314 0.3639 -0.3639 0.9314 138.6854 -221.5141)" style="fill:#BFE6EC;stroke:#0099B3;stroke-width:3;stroke-linecap:round;stroke-linejoin:round;stroke-miterlimit:10;" width="13.386" height="13.386"/>
		
			<rect id="XMLID_90_" x="671.645" y="258.841" transform="matrix(0.9314 0.3639 -0.3639 0.9314 143.1528 -228.6599)" style="fill:#BFE6EC;stroke:#0099B3;stroke-width:3;stroke-linecap:round;stroke-linejoin:round;stroke-miterlimit:10;" width="13.386" height="13.386"/>
		
			<rect id="XMLID_89_" x="692.841" y="267.123" transform="matrix(0.9314 0.3639 -0.3639 0.9314 147.6202 -235.8057)" style="fill:#BFE6EC;stroke:#0099B3;stroke-width:3;stroke-linecap:round;stroke-linejoin:round;stroke-miterlimit:10;" width="13.386" height="13.386"/>
		
			<rect id="XMLID_88_" x="714.036" y="275.404" transform="matrix(0.9314 0.3639 -0.3639 0.9314 152.0876 -242.9515)" style="fill:#BFE6EC;stroke:#0099B3;stroke-width:3;stroke-linecap:round;stroke-linejoin:round;stroke-miterlimit:10;" width="13.386" height="13.386"/>
		
			<rect id="XMLID_87_" x="735.232" y="283.686" transform="matrix(0.9314 0.3639 -0.3639 0.9314 156.5551 -250.0974)" style="fill:#BFE6EC;stroke:#0099B3;stroke-width:3;stroke-linecap:round;stroke-linejoin:round;stroke-miterlimit:10;" width="13.386" height="13.386"/>
		
			<rect id="XMLID_86_" x="756.427" y="291.968" transform="matrix(0.9314 0.3639 -0.3639 0.9314 161.0225 -257.2432)" style="fill:#BFE6EC;stroke:#0099B3;stroke-width:3;stroke-linecap:round;stroke-linejoin:round;stroke-miterlimit:10;" width="13.386" height="13.386"/>
		
			<rect id="XMLID_85_" x="777.623" y="300.249" transform="matrix(0.9314 0.3639 -0.3639 0.9314 165.4899 -264.389)" style="fill:#BFE6EC;stroke:#0099B3;stroke-width:3;stroke-linecap:round;stroke-linejoin:round;stroke-miterlimit:10;" width="13.386" height="13.386"/>
		
			<rect id="XMLID_104_" x="594.333" y="206.597" transform="matrix(0.9314 0.3639 -0.3639 0.9314 118.8379 -204.106)" style="fill:#BFE6EC;stroke:#0099B3;stroke-width:3;stroke-linecap:round;stroke-linejoin:round;stroke-miterlimit:10;" width="13.386" height="13.386"/>
		
			<rect id="XMLID_103_" x="615.528" y="214.879" transform="matrix(0.9314 0.3639 -0.3639 0.9314 123.3053 -211.2518)" style="fill:#BFE6EC;stroke:#0099B3;stroke-width:3;stroke-linecap:round;stroke-linejoin:round;stroke-miterlimit:10;" width="13.386" height="13.386"/>
		
			<rect id="XMLID_102_" x="636.724" y="223.16" transform="matrix(0.9314 0.3639 -0.3639 0.9314 127.7727 -218.3977)" style="fill:#BFE6EC;stroke:#0099B3;stroke-width:3;stroke-linecap:round;stroke-linejoin:round;stroke-miterlimit:10;" width="13.386" height="13.386"/>
		
			<rect id="XMLID_101_" x="657.919" y="231.442" transform="matrix(0.9314 0.3639 -0.3639 0.9314 132.2401 -225.5435)" style="fill:#BFE6EC;stroke:#0099B3;stroke-width:3;stroke-linecap:round;stroke-linejoin:round;stroke-miterlimit:10;" width="13.386" height="13.386"/>
		
			<rect id="XMLID_100_" x="679.115" y="239.723" transform="matrix(0.9314 0.3639 -0.3639 0.9314 136.7076 -232.6893)" style="fill:#BFE6EC;stroke:#0099B3;stroke-width:3;stroke-linecap:round;stroke-linejoin:round;stroke-miterlimit:10;" width="13.386" height="13.386"/>
		
			<rect id="XMLID_99_" x="700.31" y="248.005" transform="matrix(0.9314 0.3639 -0.3639 0.9314 141.175 -239.8351)" style="fill:#BFE6EC;stroke:#0099B3;stroke-width:3;stroke-linecap:round;stroke-linejoin:round;stroke-miterlimit:10;" width="13.386" height="13.386"/>
		
			<rect id="XMLID_98_" x="721.506" y="256.287" transform="matrix(0.9314 0.3639 -0.3639 0.9314 145.6424 -246.981)" style="fill:#BFE6EC;stroke:#0099B3;stroke-width:3;stroke-linecap:round;stroke-linejoin:round;stroke-miterlimit:10;" width="13.386" height="13.386"/>
		
			<rect id="XMLID_97_" x="742.701" y="264.568" transform="matrix(0.9314 0.3639 -0.3639 0.9314 150.1098 -254.1268)" style="fill:#BFE6EC;stroke:#0099B3;stroke-width:3;stroke-linecap:round;stroke-linejoin:round;stroke-miterlimit:10;" width="13.386" height="13.386"/>
		
			<rect id="XMLID_96_" x="763.897" y="272.85" transform="matrix(0.9314 0.3639 -0.3639 0.9314 154.5772 -261.2726)" style="fill:#BFE6EC;stroke:#0099B3;stroke-width:3;stroke-linecap:round;stroke-linejoin:round;stroke-miterlimit:10;" width="13.386" height="13.386"/>
		
			<rect id="XMLID_95_" x="785.093" y="281.132" transform="matrix(0.9314 0.3639 -0.3639 0.9314 159.0447 -268.4185)" style="fill:#BFE6EC;stroke:#0099B3;stroke-width:3;stroke-linecap:round;stroke-linejoin:round;stroke-miterlimit:10;" width="13.386" height="13.386"/>
	</g>
	<g id="XMLID_64_">
		<g id="XMLID_111_">
			<path id="XMLID_118_" style="fill:#BFE6EC;stroke:#0099B3;stroke-miterlimit:10;" d="M362.371,197.832l-5.065,3.464
				l86.273-28.928c-1.084-0.723-2.466-0.939-3.782-0.498L362.371,197.832z"/>
			
				<rect id="XMLID_108_" x="361.624" y="184.26" transform="matrix(0.9481 -0.3179 0.3179 0.9481 -39.8645 136.5036)" style="fill:none;stroke:#0099B3;stroke-width:3;stroke-linecap:round;stroke-linejoin:round;stroke-miterlimit:10;" width="73.349" height="12.262"/>
			
				<path id="XMLID_109_" style="fill:#BFE6EC;stroke:#0099B3;stroke-width:3;stroke-linecap:round;stroke-linejoin:round;stroke-miterlimit:10;" d="
				M439.236,170.198l-8.115,2.721l3.898,11.626l8.115-2.721c3.211-1.077,4.94-4.552,3.864-7.762v0
				C445.921,170.851,442.446,169.121,439.236,170.198z"/>
			
				<polygon id="XMLID_110_" style="fill:none;stroke:#0099B3;stroke-width:3;stroke-linecap:round;stroke-linejoin:round;stroke-miterlimit:10;" points="
				343.03,208.924 365.476,207.864 361.577,196.238 			"/>
			
				<line id="XMLID_112_" style="fill:none;stroke:#0099B3;stroke-width:3;stroke-linecap:round;stroke-linejoin:round;stroke-miterlimit:10;" x1="353.62" y1="201.681" x2="355.846" y2="208.319"/>
		</g>
		<g id="XMLID_65_">
			
				<rect id="XMLID_68_" x="306.536" y="221.42" transform="matrix(0.9481 -0.3179 0.3179 0.9481 -65.4066 139.1944)" style="fill:#FFFFFF;stroke:#0099B3;stroke-width:3;stroke-linecap:round;stroke-linejoin:round;stroke-miterlimit:10;" width="174.472" height="97.15"/>
			
				<rect id="XMLID_78_" x="321.751" y="233.555" transform="matrix(0.9481 -0.3179 0.3179 0.9481 -66.3134 141.8138)" style="fill:#BFE6EC;stroke:#0099B3;stroke-miterlimit:10;" width="159.184" height="81.056"/>
			
				<line id="XMLID_69_" style="fill:none;stroke:#0099B3;stroke-width:3;stroke-linecap:round;stroke-linejoin:round;stroke-miterlimit:10;" x1="323.306" y1="242.39" x2="354.192" y2="334.5"/>
			
				<line id="XMLID_74_" style="fill:none;stroke:#0099B3;stroke-width:3;stroke-linecap:round;stroke-linejoin:round;stroke-miterlimit:10;" x1="446.916" y1="200.942" x2="477.801" y2="293.052"/>
			<g id="XMLID_73_">
				
					<line id="XMLID_93_" style="fill:none;stroke:#0099B3;stroke-width:3;stroke-linecap:round;stroke-linejoin:round;stroke-miterlimit:10;" x1="326.544" y1="252.045" x2="450.153" y2="210.597"/>
				
					<line id="XMLID_94_" style="fill:none;stroke:#0099B3;stroke-width:3;stroke-linecap:round;stroke-linejoin:round;stroke-miterlimit:10;" x1="350.954" y1="324.844" x2="474.564" y2="283.396"/>
			</g>
			<g id="XMLID_105_">
				
					<line id="XMLID_106_" style="fill:none;stroke:#0099B3;stroke-width:3;stroke-linecap:round;stroke-linejoin:round;stroke-miterlimit:10;" x1="365.72" y1="303.039" x2="345.874" y2="309.694"/>
				
					<line id="XMLID_107_" style="fill:none;stroke:#0099B3;stroke-width:3;stroke-linecap:round;stroke-linejoin:round;stroke-miterlimit:10;" x1="360.97" y1="288.873" x2="341.124" y2="295.528"/>
				
					<line id="XMLID_113_" style="fill:none;stroke:#0099B3;stroke-width:3;stroke-linecap:round;stroke-linejoin:round;stroke-miterlimit:10;" x1="356.22" y1="274.707" x2="336.374" y2="281.362"/>
				
					<line id="XMLID_114_" style="fill:none;stroke:#0099B3;stroke-width:3;stroke-linecap:round;stroke-linejoin:round;stroke-miterlimit:10;" x1="351.47" y1="260.541" x2="331.624" y2="267.196"/>
			</g>
			
				<circle id="XMLID_115_" style="fill:none;stroke:#0099B3;stroke-width:3;stroke-linecap:round;stroke-linejoin:round;stroke-miterlimit:10;" cx="325.187" cy="292.992" r="7.471"/>
			
				<rect id="XMLID_116_" x="476.247" y="231.028" transform="matrix(0.9481 -0.3179 0.3179 0.9481 -51.6211 165.3348)" style="fill:#BFE6EC;stroke:#0099B3;stroke-width:3;stroke-linecap:round;stroke-linejoin:round;stroke-miterlimit:10;" width="9.016" height="19.601"/>
		</g>
	</g>
	<g id="XMLID_117_">
		
			<rect id="XMLID_119_" x="385.589" y="357.384" transform="matrix(0.9746 0.2239 -0.2239 0.9746 106.5557 -86.809)" style="fill:#FFFFFF;stroke:#0099B3;stroke-width:3;stroke-linecap:round;stroke-linejoin:round;stroke-miterlimit:10;" width="101.021" height="138.23"/>
		<g id="XMLID_120_">
			
				<rect id="XMLID_121_" x="415.577" y="377.953" transform="matrix(0.9746 0.2239 -0.2239 0.9746 97.8405 -85.5763)" style="fill:#FFFFFF;stroke:#0099B3;stroke-width:3;stroke-linecap:round;stroke-linejoin:round;stroke-miterlimit:10;" width="21.459" height="21.459"/>
			<g id="XMLID_122_">
				
					<line id="XMLID_123_" style="fill:none;stroke:#0099B3;stroke-width:3;stroke-linecap:round;stroke-linejoin:round;stroke-miterlimit:10;" x1="409.679" y1="414.008" x2="465.513" y2="426.834"/>
				
					<line id="XMLID_124_" style="fill:none;stroke:#0099B3;stroke-width:3;stroke-linecap:round;stroke-linejoin:round;stroke-miterlimit:10;" x1="406.787" y1="426.593" x2="462.622" y2="439.419"/>
				
					<line id="XMLID_125_" style="fill:none;stroke:#0099B3;stroke-width:3;stroke-linecap:round;stroke-linejoin:round;stroke-miterlimit:10;" x1="403.896" y1="439.179" x2="459.731" y2="452.005"/>
				
					<line id="XMLID_126_" style="fill:none;stroke:#0099B3;stroke-width:3;stroke-linecap:round;stroke-linejoin:round;stroke-miterlimit:10;" x1="401.005" y1="451.765" x2="456.84" y2="464.59"/>
				
					<line id="XMLID_127_" style="fill:none;stroke:#0099B3;stroke-width:3;stroke-linecap:round;stroke-linejoin:round;stroke-miterlimit:10;" x1="398.114" y1="464.35" x2="453.949" y2="477.176"/>
			</g>
		</g>
	</g>
	<g id="XMLID_150_">
		
			<rect id="XMLID_147_" x="819.393" y="390.741" transform="matrix(0.892 0.452 -0.452 0.892 303.7098 -347.1427)" style="fill:#FFFFFF;stroke:#008DA7;stroke-width:3;stroke-linecap:round;stroke-linejoin:round;stroke-miterlimit:10;" width="118.069" height="142.709"/>
		
			<rect id="XMLID_134_" x="811.66" y="379.652" transform="matrix(0.892 0.452 -0.452 0.892 301.104 -344.0708)" style="fill:#FFFFFF;stroke:#008DA7;stroke-width:3;stroke-linecap:round;stroke-linejoin:round;stroke-miterlimit:10;" width="118.069" height="157.052"/>
		
			<rect id="XMLID_153_" x="788.676" y="404.297" transform="matrix(0.452 -0.892 0.892 0.452 67.932 1021.5029)" style="fill:#BFE6EC;" width="153.325" height="102.332"/>
		
			<rect id="XMLID_146_" x="867.242" y="454.188" transform="matrix(0.892 0.452 -0.452 0.892 308.3361 -355.2363)" style="fill:#FFFFFF;stroke:#008DA7;stroke-width:3;stroke-linecap:round;stroke-linejoin:round;stroke-miterlimit:10;" width="60.875" height="27.086"/>
		
			<polygon id="XMLID_148_" style="fill:#FFFFFF;stroke:#008DA7;stroke-width:3;stroke-linecap:round;stroke-linejoin:round;stroke-miterlimit:10;" points="
			939.672,428.835 932.866,420.279 921.941,419.851 933.257,397.518 950.989,406.502 		"/>
		
			<rect id="XMLID_149_" x="817.164" y="356.612" transform="matrix(0.892 0.452 -0.452 0.892 285.781 -326.0069)" style="fill:#BFE6EC;stroke:#008DA7;stroke-width:3;stroke-linecap:round;stroke-linejoin:round;stroke-miterlimit:10;" width="16.123" height="157.052"/>
	</g>
	<g id="XMLID_157_">
		
			<rect id="XMLID_151_" x="689.79" y="450.148" transform="matrix(0.9436 0.3311 -0.3311 0.9436 201.3921 -203.1329)" style="fill:#BFE6EC;stroke:#0099B3;stroke-width:3;stroke-linecap:round;stroke-linejoin:round;stroke-miterlimit:10;" width="14.08" height="78.622"/>
		
			<path id="XMLID_152_" style="fill:#BFE6EC;stroke:#0099B3;stroke-width:3;stroke-linecap:round;stroke-linejoin:round;stroke-miterlimit:10;" d="
			M715.148,437.26L715.148,437.26c-2.228-0.782-4.669,0.39-5.451,2.619l-3.885,11.071l8.069,2.832l3.885-11.071
			C718.549,440.482,717.376,438.042,715.148,437.26z"/>
		
			<path id="XMLID_155_" style="fill:#BFE6EC;stroke:#0099B3;stroke-width:3;stroke-linecap:round;stroke-linejoin:round;stroke-miterlimit:10;" d="
			M677.17,524.22l0.942,10.969c0.204,2.372,3.112,3.392,4.753,1.668l7.59-7.974L677.17,524.22z"/>
		
			<rect id="XMLID_154_" x="679.874" y="508.348" transform="matrix(0.9436 0.3311 -0.3311 0.9436 210.1891 -198.2553)" style="fill:#FFFFFF;stroke:#0099B3;stroke-width:3;stroke-linecap:round;stroke-linejoin:round;stroke-miterlimit:10;" width="14.08" height="18.732"/>
		
			<polyline id="XMLID_156_" style="fill:none;stroke:#0099B3;stroke-width:3;stroke-linecap:round;stroke-linejoin:round;stroke-miterlimit:10;" points="
			700.756,457.011 720.684,464.005 709.268,496.535 		"/>
	</g>
	<g id="XMLID_161_">
		
			<path id="XMLID_158_" style="fill:#FFFFFF;stroke:#0099B3;stroke-width:3;stroke-linecap:round;stroke-linejoin:round;stroke-miterlimit:10;" d="
			M179.034,382.537l-62.898,20.35c-4.99,1.614-10.344-1.122-11.958-6.112l-25.814-79.787c-1.614-4.99,1.122-10.344,6.112-11.958
			l62.898-20.35c4.99-1.614,10.344,1.122,11.958,6.112l25.814,79.787C186.76,375.569,184.024,380.923,179.034,382.537z"/>
		
			<rect id="XMLID_159_" x="90.514" y="306.269" transform="matrix(0.9514 -0.3078 0.3078 0.9514 -90.9004 52.8899)" style="fill:#FFFFFF;stroke:#0099B3;stroke-width:3;stroke-linecap:round;stroke-linejoin:round;stroke-miterlimit:10;" width="63.36" height="16.602"/>
		
			<rect id="XMLID_166_" x="98.587" y="311.156" transform="matrix(0.9514 -0.3078 0.3078 0.9514 -91.0478 53.9672)" style="fill:#BFE6EC;" width="53.894" height="8.84"/>
		
			<rect id="XMLID_160_" x="97.932" y="338.389" transform="matrix(0.9514 -0.3078 0.3078 0.9514 -99.931 49.0772)" style="fill:#BFE6EC;stroke:#0099B3;stroke-width:3;stroke-linecap:round;stroke-linejoin:round;stroke-miterlimit:10;" width="15.322" height="5.798"/>
		
			<rect id="XMLID_162_" x="120.785" y="330.995" transform="matrix(0.9514 -0.3078 0.3078 0.9514 -96.5454 55.7528)" style="fill:#BFE6EC;stroke:#0099B3;stroke-width:3;stroke-linecap:round;stroke-linejoin:round;stroke-miterlimit:10;" width="15.322" height="5.798"/>
		
			<rect id="XMLID_163_" x="143.637" y="323.602" transform="matrix(0.9514 -0.3078 0.3078 0.9514 -93.1597 62.4285)" style="fill:#BFE6EC;stroke:#0099B3;stroke-width:3;stroke-linecap:round;stroke-linejoin:round;stroke-miterlimit:10;" width="15.322" height="5.798"/>
		
			<rect id="XMLID_167_" x="103.68" y="355.082" transform="matrix(0.9514 -0.3078 0.3078 0.9514 -105.1208 51.7093)" style="fill:#FFFFFF;stroke:#0099B3;stroke-width:3;stroke-linecap:round;stroke-linejoin:round;stroke-miterlimit:10;" width="15.322" height="7.943"/>
		
			<rect id="XMLID_165_" x="126.533" y="347.688" transform="matrix(0.9514 -0.3078 0.3078 0.9514 -101.7352 58.3849)" style="fill:#FFFFFF;stroke:#0099B3;stroke-width:3;stroke-linecap:round;stroke-linejoin:round;stroke-miterlimit:10;" width="15.322" height="7.943"/>
		
			<rect id="XMLID_164_" x="149.385" y="340.295" transform="matrix(0.9514 -0.3078 0.3078 0.9514 -98.3495 65.0606)" style="fill:#BFE6EC;stroke:#0099B3;stroke-width:3;stroke-linecap:round;stroke-linejoin:round;stroke-miterlimit:10;" width="15.322" height="7.943"/>
		
			<rect id="XMLID_170_" x="108.067" y="368.64" transform="matrix(0.9514 -0.3078 0.3078 0.9514 -109.0813 53.7179)" style="fill:#FFFFFF;stroke:#0099B3;stroke-width:3;stroke-linecap:round;stroke-linejoin:round;stroke-miterlimit:10;" width="15.322" height="7.943"/>
		
			<rect id="XMLID_169_" x="130.919" y="361.246" transform="matrix(0.9514 -0.3078 0.3078 0.9514 -105.6956 60.3935)" style="fill:#FFFFFF;stroke:#0099B3;stroke-width:3;stroke-linecap:round;stroke-linejoin:round;stroke-miterlimit:10;" width="15.322" height="7.943"/>
		
			<rect id="XMLID_168_" x="153.772" y="353.852" transform="matrix(0.9514 -0.3078 0.3078 0.9514 -102.3099 67.0692)" style="fill:#BFE6EC;stroke:#0099B3;stroke-width:3;stroke-linecap:round;stroke-linejoin:round;stroke-miterlimit:10;" width="15.322" height="7.943"/>
		
			<rect id="XMLID_173_" x="112.453" y="382.197" transform="matrix(0.9514 -0.3078 0.3078 0.9514 -113.0417 55.7265)" style="fill:#FFFFFF;stroke:#0099B3;stroke-width:3;stroke-linecap:round;stroke-linejoin:round;stroke-miterlimit:10;" width="15.322" height="7.943"/>
		
			<rect id="XMLID_172_" x="135.305" y="374.804" transform="matrix(0.9514 -0.3078 0.3078 0.9514 -109.656 62.4021)" style="fill:#FFFFFF;stroke:#0099B3;stroke-width:3;stroke-linecap:round;stroke-linejoin:round;stroke-miterlimit:10;" width="15.322" height="7.943"/>
		
			<rect id="XMLID_171_" x="158.158" y="367.41" transform="matrix(0.9514 -0.3078 0.3078 0.9514 -106.2703 69.0778)" style="fill:#BFE6EC;stroke:#0099B3;stroke-width:3;stroke-linecap:round;stroke-linejoin:round;stroke-miterlimit:10;" width="15.322" height="7.943"/>
	</g>
	<g id="XMLID_2_">
		
			<polygon id="XMLID_5_" style="fill:#FFFFFF;stroke:#0099B3;stroke-width:3;stroke-linecap:round;stroke-linejoin:round;stroke-miterlimit:10;" points="
			228.446,269.84 203.466,318.462 238.871,336.652 245.661,323.435 258.878,330.226 277.068,294.821 		"/>
		
			<polygon id="XMLID_6_" style="fill:#FFFFFF;stroke:#0099B3;stroke-width:3;stroke-linecap:round;stroke-linejoin:round;stroke-miterlimit:10;" points="
			238.871,336.652 258.878,330.226 245.661,323.435 		"/>
		
			<line id="XMLID_4_" style="fill:#FFFFFF;stroke:#0099B3;stroke-width:3;stroke-linecap:round;stroke-linejoin:round;stroke-miterlimit:10;" x1="223.722" y1="279.035" x2="235.601" y2="285.138"/>
		
			<line id="XMLID_7_" style="fill:#FFFFFF;stroke:#0099B3;stroke-width:3;stroke-linecap:round;stroke-linejoin:round;stroke-miterlimit:10;" x1="245.27" y1="290.106" x2="272.344" y2="304.015"/>
	</g>
	<g id="XMLID_17_">
		
			<circle id="XMLID_19_" style="fill:none;stroke:#0099B3;stroke-width:3;stroke-linecap:round;stroke-linejoin:round;stroke-miterlimit:10;" cx="216.237" cy="208.318" r="34.432"/>
		
			<path id="XMLID_20_" style="fill:#BFE6EC;stroke:#0099B3;stroke-width:3;stroke-linecap:round;stroke-linejoin:round;stroke-miterlimit:10;" d="
			M254.897,189.127l58.745-28.994c2.689-1.327,5.84-1.345,8.544-0.048h0c4.646,2.229,6.761,7.684,4.83,12.462v0
			c-1.124,2.781-3.463,4.891-6.344,5.723l-62.94,18.172L254.897,189.127z"/>
		
			<path id="XMLID_22_" style="fill:none;stroke:#0099B3;stroke-width:3;stroke-linecap:round;stroke-linejoin:round;stroke-miterlimit:10;" d="
			M248.342,195.874c0.779,2.01,1.346,4.048,1.732,6.093l8.52-3.302l-4.559-11.762l-8.52,3.302
			C246.608,191.976,247.563,193.864,248.342,195.874z"/>
		
			<circle id="XMLID_21_" style="fill:none;stroke:#0099B3;stroke-width:3;stroke-linecap:round;stroke-linejoin:round;stroke-miterlimit:10;" cx="216.237" cy="208.318" r="25.469"/>
		<path id="XMLID_174_" style="fill:#BFE6EC;" d="M228.402,222.095c4.406-1.708,8.147-4.657,10.84-8.543
			c1.055-4.609,0.712-9.362-0.995-13.766c-4.704-12.136-18.404-18.183-30.541-13.479c-4.406,1.708-8.147,4.658-10.841,8.542
			c-1.054,4.608-0.712,9.361,0.996,13.766C202.565,220.753,216.265,226.8,228.402,222.095z"/>
		
			<line id="XMLID_23_" style="fill:#BFE6EC;stroke:#0099B3;stroke-width:3;stroke-linecap:round;stroke-linejoin:round;stroke-miterlimit:10;" x1="320.672" y1="178.269" x2="313.643" y2="160.132"/>
	</g>
	<g id="XMLID_35_">
		
			<path id="XMLID_37_" style="fill:#BFE6EC;stroke:#0099B3;stroke-width:3;stroke-linecap:round;stroke-linejoin:round;stroke-miterlimit:10;" d="
			M143.403,198.999l-31.268-8.105c-4.812-1.247-9.723,1.642-10.97,6.454l-2.833,10.93l48.692,12.621l2.833-10.93
			C151.104,205.158,148.215,200.246,143.403,198.999z"/>
		
			<path id="XMLID_141_" style="fill:#BFE6EC;stroke:#0099B3;stroke-width:3;stroke-linecap:round;stroke-linejoin:round;stroke-miterlimit:10;" d="
			M143.04,174.043c0.674-0.966,1.2-2.058,1.513-3.265c1.411-5.444-1.858-11-7.301-12.411c-5.444-1.411-11,1.858-12.411,7.301
			c-0.075,0.289-0.134,0.595-0.187,0.908c-0.013,0.082-0.025,0.163-0.037,0.245c-1.182,7.984,4.037,23.109-2.151,26.75l5.165,1.339
			l0.14,0.036l5.165,1.339C129.633,190.673,139.121,181.362,143.04,174.043z"/>
		
			<rect id="XMLID_175_" x="99.725" y="214.5" transform="matrix(0.968 0.2509 -0.2509 0.968 58.4244 -23.6542)" style="fill:#FFFFFF;stroke:#0099B3;stroke-width:3;stroke-linecap:round;stroke-linejoin:round;stroke-miterlimit:10;" width="44.503" height="5.591"/>
		
			<line id="XMLID_179_" style="fill:none;stroke:#0099B3;stroke-width:3;stroke-linecap:round;stroke-linejoin:round;stroke-miterlimit:10;" x1="99.891" y1="202.265" x2="116.827" y2="206.656"/>
	</g>
</g>
</svg>
